<svg 
  width="257.5" 
  height="36.001" 
  viewBox="0 0 257.5 36.001" 
  xmlns="http://www.w3.org/2000/svg"
>
  <g 
    id="svgGroup" 
    stroke-linecap="round" 
    fill-rule="evenodd" 
    font-size="9pt" 
    stroke="#ffffff" 
    stroke-width="0mm" 
    fill="#288331" 
    style="stroke:#ffffff;stroke-width:0mm;fill:#288331"
  >
    <path 
      d="M 85.05 35.5 L 85.05 0.5 L 91.95 0.5 L 97.3 21.45 L 97.4 21.45 L 97.4 0.5 L 102.3 0.5 L 102.3 35.5 L 96.65 35.5 L 90.05 9.95 L 89.95 9.95 L 89.95 35.5 L 85.05 35.5 Z M 209.9 35.5 L 209.9 0.5 L 216.8 0.5 L 222.15 21.45 L 222.25 21.45 L 222.25 0.5 L 227.15 0.5 L 227.15 35.5 L 221.5 35.5 L 214.9 9.95 L 214.8 9.95 L 214.8 35.5 L 209.9 35.5 Z M 38.95 27.2 L 38.95 8.8 Q 38.95 4.55 41.05 2.275 A 6.75 6.75 0 0 1 44.315 0.347 Q 45.409 0.049 46.716 0.007 A 13.528 13.528 0 0 1 47.15 0 Q 50.308 0 52.281 1.418 A 6.384 6.384 0 0 1 53.25 2.275 Q 55.35 4.55 55.35 8.8 L 55.35 11.8 L 50.15 11.8 L 50.15 8.45 Q 50.15 5.378 47.89 5.042 A 4.009 4.009 0 0 0 47.3 5 Q 44.673 5 44.467 7.932 A 7.422 7.422 0 0 0 44.45 8.45 L 44.45 27.6 Q 44.45 31 47.3 31 A 3.395 3.395 0 0 0 48.513 30.801 Q 50.15 30.177 50.15 27.6 L 50.15 20.75 L 47.4 20.75 L 47.4 15.75 L 55.35 15.75 L 55.35 27.2 Q 55.35 31.45 53.25 33.725 A 6.75 6.75 0 0 1 49.985 35.653 Q 48.891 35.952 47.584 35.993 A 13.528 13.528 0 0 1 47.15 36 Q 43.992 36 42.019 34.583 A 6.384 6.384 0 0 1 41.05 33.725 Q 38.95 31.45 38.95 27.2 Z M 189.6 27.2 L 189.6 0.5 L 195.1 0.5 L 195.1 27.6 A 7.062 7.062 0 0 0 195.156 28.522 Q 195.301 29.622 195.825 30.2 Q 196.546 30.996 197.886 31 A 4.516 4.516 0 0 0 197.9 31 Q 199.122 31 199.832 30.345 A 2.286 2.286 0 0 0 199.975 30.2 A 2.358 2.358 0 0 0 200.424 29.441 Q 200.7 28.711 200.7 27.6 L 200.7 0.5 L 206 0.5 L 206 27.2 Q 206 31.45 203.9 33.725 A 6.75 6.75 0 0 1 200.635 35.653 Q 199.541 35.952 198.234 35.993 A 13.528 13.528 0 0 1 197.8 36 Q 194.642 36 192.669 34.583 A 6.384 6.384 0 0 1 191.7 33.725 Q 189.6 31.45 189.6 27.2 Z M 58.9 35.5 L 58.9 0.5 L 73.9 0.5 L 73.9 5.5 L 64.4 5.5 L 64.4 14.75 L 71.95 14.75 L 71.95 19.75 L 64.4 19.75 L 64.4 30.5 L 73.9 30.5 L 73.9 35.5 L 58.9 35.5 Z M 152.6 35.5 L 152.6 0.5 L 167.15 0.5 L 167.15 5.5 L 158.1 5.5 L 158.1 15.25 L 165.2 15.25 L 165.2 20.25 L 158.1 20.25 L 158.1 35.5 L 152.6 35.5 Z M 17.85 35.5 L 23.55 0.5 L 31 0.5 L 36.7 35.5 L 31.2 35.5 L 30.2 28.55 L 30.2 28.65 L 23.95 28.65 L 22.95 35.5 L 17.85 35.5 Z M 130.7 35.5 L 130.7 5.5 L 124.95 5.5 L 124.95 0.5 L 141.95 0.5 L 141.95 5.5 L 136.2 5.5 L 136.2 35.5 L 130.7 35.5 Z M 231.25 35.5 L 231.25 0.5 L 239.65 0.5 A 12.142 12.142 0 0 1 242.006 0.714 Q 243.346 0.979 244.379 1.575 A 6.076 6.076 0 0 1 245.8 2.7 Q 247.492 4.516 247.788 7.729 A 15.535 15.535 0 0 1 247.85 9.15 L 247.85 26.85 A 14.077 14.077 0 0 1 247.65 29.306 Q 247.412 30.644 246.893 31.7 A 6.599 6.599 0 0 1 245.8 33.3 Q 244.011 35.22 240.662 35.465 A 13.894 13.894 0 0 1 239.65 35.5 L 231.25 35.5 Z M 0 35.5 L 0 0.5 L 8.1 0.5 A 12.142 12.142 0 0 1 10.456 0.714 Q 11.796 0.979 12.829 1.575 A 6.076 6.076 0 0 1 14.25 2.7 Q 15.942 4.516 16.238 7.729 A 15.535 15.535 0 0 1 16.3 9.15 L 16.3 12.6 A 14.077 14.077 0 0 1 16.1 15.056 Q 15.862 16.394 15.343 17.45 A 6.599 6.599 0 0 1 14.25 19.05 Q 12.461 20.97 9.112 21.215 A 13.894 13.894 0 0 1 8.1 21.25 L 5.5 21.25 L 5.5 35.5 L 0 35.5 Z M 106 27.2 L 106 8.8 A 13.196 13.196 0 0 1 106.231 6.249 Q 106.705 3.846 108.15 2.3 A 6.927 6.927 0 0 1 111.476 0.351 Q 112.601 0.046 113.947 0.006 A 13.768 13.768 0 0 1 114.35 0 Q 117.571 0 119.59 1.455 A 6.561 6.561 0 0 1 120.55 2.3 A 7.517 7.517 0 0 1 122.259 5.384 Q 122.7 6.897 122.7 8.8 L 122.7 27.2 A 13.196 13.196 0 0 1 122.469 29.752 Q 121.995 32.155 120.55 33.7 A 6.927 6.927 0 0 1 117.224 35.649 Q 116.099 35.955 114.753 35.995 A 13.768 13.768 0 0 1 114.35 36 Q 111.129 36 109.11 34.546 A 6.561 6.561 0 0 1 108.15 33.7 A 7.517 7.517 0 0 1 106.441 30.616 Q 106 29.103 106 27.2 Z M 169.4 27.2 L 169.4 8.8 A 13.196 13.196 0 0 1 169.631 6.249 Q 170.105 3.846 171.55 2.3 A 6.927 6.927 0 0 1 174.876 0.351 Q 176.001 0.046 177.347 0.006 A 13.768 13.768 0 0 1 177.75 0 Q 180.971 0 182.99 1.455 A 6.561 6.561 0 0 1 183.95 2.3 A 7.517 7.517 0 0 1 185.659 5.384 Q 186.1 6.897 186.1 8.8 L 186.1 27.2 A 13.196 13.196 0 0 1 185.869 29.752 Q 185.395 32.155 183.95 33.7 A 6.927 6.927 0 0 1 180.624 35.649 Q 179.499 35.955 178.153 35.995 A 13.768 13.768 0 0 1 177.75 36 Q 174.529 36 172.51 34.546 A 6.561 6.561 0 0 1 171.55 33.7 A 7.517 7.517 0 0 1 169.841 30.616 Q 169.4 29.103 169.4 27.2 Z M 252.7 26.25 L 252 15.1 L 252 0.5 L 257.5 0.5 L 257.5 15.1 L 256.8 26.25 L 252.7 26.25 Z M 236.75 30.5 L 239.55 30.5 Q 240.772 30.5 241.482 29.845 A 2.286 2.286 0 0 0 241.625 29.7 A 2.358 2.358 0 0 0 242.074 28.941 Q 242.35 28.211 242.35 27.1 L 242.35 8.9 A 7.062 7.062 0 0 0 242.294 7.979 Q 242.149 6.878 241.625 6.3 Q 240.904 5.505 239.564 5.5 A 4.516 4.516 0 0 0 239.55 5.5 L 236.75 5.5 L 236.75 30.5 Z M 117.2 27.55 L 117.2 8.45 Q 117.2 5.378 114.94 5.042 A 4.009 4.009 0 0 0 114.35 5 Q 111.723 5 111.517 7.932 A 7.422 7.422 0 0 0 111.5 8.45 L 111.5 27.55 Q 111.5 30.623 113.76 30.959 A 4.009 4.009 0 0 0 114.35 31 Q 116.977 31 117.183 28.069 A 7.422 7.422 0 0 0 117.2 27.55 Z M 180.6 27.55 L 180.6 8.45 Q 180.6 5.378 178.34 5.042 A 4.009 4.009 0 0 0 177.75 5 Q 175.123 5 174.917 7.932 A 7.422 7.422 0 0 0 174.9 8.45 L 174.9 27.55 Q 174.9 30.623 177.16 30.959 A 4.009 4.009 0 0 0 177.75 31 Q 180.377 31 180.583 28.069 A 7.422 7.422 0 0 0 180.6 27.55 Z M 24.6 23.9 L 29.55 23.9 L 27.1 6.6 L 27 6.6 L 24.6 23.9 Z M 5.5 16.25 L 8.1 16.25 Q 9.45 16.25 10.125 15.5 A 2.141 2.141 0 0 0 10.521 14.83 Q 10.762 14.206 10.795 13.259 A 8.884 8.884 0 0 0 10.8 12.95 L 10.8 8.8 A 7.564 7.564 0 0 0 10.752 7.918 Q 10.645 7.008 10.296 6.474 A 1.826 1.826 0 0 0 10.125 6.25 A 2.134 2.134 0 0 0 9.136 5.639 Q 8.68 5.5 8.1 5.5 L 5.5 5.5 L 5.5 16.25 Z M 252.1 35.5 L 252.1 30.2 L 257.4 30.2 L 257.4 35.5 L 252.1 35.5 Z" 
      vector-effect="non-scaling-stroke"
    />
  </g>
</svg>