<svg 
  width="299.85" 
  height="36.001" 
  viewBox="0 0 299.85 36.001" 
  xmlns="http://www.w3.org/2000/svg"
>
  <g 
    id="svgGroup" 
    stroke-linecap="round" 
    fill-rule="evenodd" 
    font-size="9pt" 
    stroke="#ffffff" 
    stroke-width="0mm" 
    fill="#288331" 
    style="stroke:#ffffff;stroke-width:0mm;fill:#288331"
  >
    <path
      d="M 59.2 35.5 L 59.2 0.5 L 66.1 0.5 L 71.45 21.45 L 71.55 21.45 L 71.55 0.5 L 76.45 0.5 L 76.45 35.5 L 70.8 35.5 L 64.2 9.95 L 64.1 9.95 L 64.1 35.5 L 59.2 35.5 Z M 127.4 35.5 L 127.4 0.5 L 134.3 0.5 L 139.65 21.45 L 139.75 21.45 L 139.75 0.5 L 144.65 0.5 L 144.65 35.5 L 139 35.5 L 132.4 9.95 L 132.3 9.95 L 132.3 35.5 L 127.4 35.5 Z M 252.25 35.5 L 252.25 0.5 L 259.15 0.5 L 264.5 21.45 L 264.6 21.45 L 264.6 0.5 L 269.5 0.5 L 269.5 35.5 L 263.85 35.5 L 257.25 9.95 L 257.15 9.95 L 257.15 35.5 L 252.25 35.5 Z M 21.1 27.2 L 21.1 8.8 Q 21.1 4.55 23.2 2.275 A 6.75 6.75 0 0 1 26.465 0.347 Q 27.559 0.049 28.866 0.007 A 13.528 13.528 0 0 1 29.3 0 Q 32.458 0 34.431 1.418 A 6.384 6.384 0 0 1 35.4 2.275 Q 37.5 4.55 37.5 8.8 L 37.5 11.8 L 32.3 11.8 L 32.3 8.45 Q 32.3 5.378 30.04 5.042 A 4.009 4.009 0 0 0 29.45 5 Q 26.823 5 26.617 7.932 A 7.422 7.422 0 0 0 26.6 8.45 L 26.6 27.6 Q 26.6 31 29.45 31 A 3.395 3.395 0 0 0 30.663 30.801 Q 32.3 30.177 32.3 27.6 L 32.3 20.75 L 29.55 20.75 L 29.55 15.75 L 37.5 15.75 L 37.5 27.2 Q 37.5 31.45 35.4 33.725 A 6.75 6.75 0 0 1 32.135 35.653 Q 31.041 35.952 29.734 35.993 A 13.528 13.528 0 0 1 29.3 36 Q 26.142 36 24.169 34.583 A 6.384 6.384 0 0 1 23.2 33.725 Q 21.1 31.45 21.1 27.2 Z M 231.95 27.2 L 231.95 0.5 L 237.45 0.5 L 237.45 27.6 A 7.062 7.062 0 0 0 237.506 28.522 Q 237.651 29.622 238.175 30.2 Q 238.896 30.996 240.236 31 A 4.516 4.516 0 0 0 240.25 31 Q 241.472 31 242.182 30.345 A 2.286 2.286 0 0 0 242.325 30.2 A 2.358 2.358 0 0 0 242.774 29.441 Q 243.05 28.711 243.05 27.6 L 243.05 0.5 L 248.35 0.5 L 248.35 27.2 Q 248.35 31.45 246.25 33.725 A 6.75 6.75 0 0 1 242.985 35.653 Q 241.891 35.952 240.584 35.993 A 13.528 13.528 0 0 1 240.15 36 Q 236.992 36 235.019 34.583 A 6.384 6.384 0 0 1 234.05 33.725 Q 231.95 31.45 231.95 27.2 Z M 80.2 27.4 L 80.2 8.6 Q 80.2 5.539 81.357 3.509 A 6.858 6.858 0 0 1 82.275 2.25 A 6.668 6.668 0 0 1 85.5 0.344 Q 86.58 0.049 87.872 0.007 A 13.339 13.339 0 0 1 88.3 0 A 11.06 11.06 0 0 1 90.69 0.243 Q 92.231 0.584 93.371 1.405 A 6.313 6.313 0 0 1 94.325 2.25 A 7.364 7.364 0 0 1 95.959 5.214 Q 96.29 6.336 96.372 7.68 A 14.992 14.992 0 0 1 96.4 8.6 L 96.4 12.3 L 91.2 12.3 L 91.2 8.25 Q 91.2 5.403 89.089 5.05 A 3.88 3.88 0 0 0 88.45 5 A 3.303 3.303 0 0 0 87.279 5.191 Q 85.827 5.74 85.71 7.867 A 7.009 7.009 0 0 0 85.7 8.25 L 85.7 27.8 Q 85.7 30.583 87.78 30.946 A 3.903 3.903 0 0 0 88.45 31 A 3.354 3.354 0 0 0 89.617 30.814 Q 91.096 30.267 91.193 28.112 A 6.907 6.907 0 0 0 91.2 27.8 L 91.2 22.45 L 96.4 22.45 L 96.4 27.4 Q 96.4 30.462 95.243 32.492 A 6.858 6.858 0 0 1 94.325 33.75 A 6.668 6.668 0 0 1 91.1 35.657 Q 90.02 35.952 88.728 35.994 A 13.339 13.339 0 0 1 88.3 36 A 11.06 11.06 0 0 1 85.91 35.758 Q 84.369 35.417 83.229 34.596 A 6.313 6.313 0 0 1 82.275 33.75 A 7.364 7.364 0 0 1 80.641 30.787 Q 80.31 29.664 80.228 28.321 A 14.992 14.992 0 0 1 80.2 27.4 Z M 41.05 35.5 L 41.05 0.5 L 56.05 0.5 L 56.05 5.5 L 46.55 5.5 L 46.55 14.75 L 54.1 14.75 L 54.1 19.75 L 46.55 19.75 L 46.55 30.5 L 56.05 30.5 L 56.05 35.5 L 41.05 35.5 Z M 104.75 35.5 L 104.75 20.6 L 98.1 0.5 L 103.95 0.5 L 107.7 13.35 L 107.8 13.35 L 111.55 0.5 L 116.9 0.5 L 110.25 20.6 L 110.25 35.5 L 104.75 35.5 Z M 194.95 35.5 L 194.95 0.5 L 209.5 0.5 L 209.5 5.5 L 200.45 5.5 L 200.45 15.25 L 207.55 15.25 L 207.55 20.25 L 200.45 20.25 L 200.45 35.5 L 194.95 35.5 Z M 0 35.5 L 5.7 0.5 L 13.15 0.5 L 18.85 35.5 L 13.35 35.5 L 12.35 28.55 L 12.35 28.65 L 6.1 28.65 L 5.1 35.5 L 0 35.5 Z M 173.05 35.5 L 173.05 5.5 L 167.3 5.5 L 167.3 0.5 L 184.3 0.5 L 184.3 5.5 L 178.55 5.5 L 178.55 35.5 L 173.05 35.5 Z M 273.6 35.5 L 273.6 0.5 L 282 0.5 A 12.142 12.142 0 0 1 284.356 0.714 Q 285.696 0.979 286.729 1.575 A 6.076 6.076 0 0 1 288.15 2.7 Q 289.842 4.516 290.138 7.729 A 15.535 15.535 0 0 1 290.2 9.15 L 290.2 26.85 A 14.077 14.077 0 0 1 290 29.306 Q 289.762 30.644 289.243 31.7 A 6.599 6.599 0 0 1 288.15 33.3 Q 286.361 35.22 283.012 35.465 A 13.894 13.894 0 0 1 282 35.5 L 273.6 35.5 Z M 148.35 27.2 L 148.35 8.8 A 13.196 13.196 0 0 1 148.581 6.249 Q 149.055 3.846 150.5 2.3 A 6.927 6.927 0 0 1 153.826 0.351 Q 154.951 0.046 156.297 0.006 A 13.768 13.768 0 0 1 156.7 0 Q 159.921 0 161.94 1.455 A 6.561 6.561 0 0 1 162.9 2.3 A 7.517 7.517 0 0 1 164.609 5.384 Q 165.05 6.897 165.05 8.8 L 165.05 27.2 A 13.196 13.196 0 0 1 164.819 29.752 Q 164.345 32.155 162.9 33.7 A 6.927 6.927 0 0 1 159.574 35.649 Q 158.449 35.955 157.103 35.995 A 13.768 13.768 0 0 1 156.7 36 Q 153.479 36 151.46 34.546 A 6.561 6.561 0 0 1 150.5 33.7 A 7.517 7.517 0 0 1 148.791 30.616 Q 148.35 29.103 148.35 27.2 Z M 211.75 27.2 L 211.75 8.8 A 13.196 13.196 0 0 1 211.981 6.249 Q 212.455 3.846 213.9 2.3 A 6.927 6.927 0 0 1 217.226 0.351 Q 218.351 0.046 219.697 0.006 A 13.768 13.768 0 0 1 220.1 0 Q 223.321 0 225.34 1.455 A 6.561 6.561 0 0 1 226.3 2.3 A 7.517 7.517 0 0 1 228.009 5.384 Q 228.45 6.897 228.45 8.8 L 228.45 27.2 A 13.196 13.196 0 0 1 228.219 29.752 Q 227.745 32.155 226.3 33.7 A 6.927 6.927 0 0 1 222.974 35.649 Q 221.849 35.955 220.503 35.995 A 13.768 13.768 0 0 1 220.1 36 Q 216.879 36 214.86 34.546 A 6.561 6.561 0 0 1 213.9 33.7 A 7.517 7.517 0 0 1 212.191 30.616 Q 211.75 29.103 211.75 27.2 Z M 295.05 26.25 L 294.35 15.1 L 294.35 0.5 L 299.85 0.5 L 299.85 15.1 L 299.15 26.25 L 295.05 26.25 Z M 279.1 30.5 L 281.9 30.5 Q 283.122 30.5 283.832 29.845 A 2.286 2.286 0 0 0 283.975 29.7 A 2.358 2.358 0 0 0 284.424 28.941 Q 284.7 28.211 284.7 27.1 L 284.7 8.9 A 7.062 7.062 0 0 0 284.644 7.979 Q 284.499 6.878 283.975 6.3 Q 283.254 5.505 281.914 5.5 A 4.516 4.516 0 0 0 281.9 5.5 L 279.1 5.5 L 279.1 30.5 Z M 159.55 27.55 L 159.55 8.45 Q 159.55 5.378 157.29 5.042 A 4.009 4.009 0 0 0 156.7 5 Q 154.073 5 153.867 7.932 A 7.422 7.422 0 0 0 153.85 8.45 L 153.85 27.55 Q 153.85 30.623 156.11 30.959 A 4.009 4.009 0 0 0 156.7 31 Q 159.327 31 159.533 28.069 A 7.422 7.422 0 0 0 159.55 27.55 Z M 222.95 27.55 L 222.95 8.45 Q 222.95 5.378 220.69 5.042 A 4.009 4.009 0 0 0 220.1 5 Q 217.473 5 217.267 7.932 A 7.422 7.422 0 0 0 217.25 8.45 L 217.25 27.55 Q 217.25 30.623 219.51 30.959 A 4.009 4.009 0 0 0 220.1 31 Q 222.727 31 222.933 28.069 A 7.422 7.422 0 0 0 222.95 27.55 Z M 6.75 23.9 L 11.7 23.9 L 9.25 6.6 L 9.15 6.6 L 6.75 23.9 Z M 294.45 35.5 L 294.45 30.2 L 299.75 30.2 L 299.75 35.5 L 294.45 35.5 Z" 
      vector-effect="non-scaling-stroke"
    />
  </g>
</svg>